<svg width="681.9587890624999px" height="122.021240234375px" xmlns="http://www.w3.org/2000/svg" viewBox="-90.97939453124997 13.9893798828125 681.9587890624999 122.021240234375" style="background: rgb(17, 17, 17);" preserveAspectRatio="xMidYMid"><defs><filter id="editing-jagged" x="-100%" y="-100%" width="300%" height="300%"><feTurbulence result="turb" baseFrequency="0.1" numOctaves="1" seed="1"></feTurbulence><feDisplacementMap in="SourceGraphic" in2="turb" scale="7"></feDisplacementMap></filter></defs><g filter="url(#editing-jagged)"><g transform="translate(7.289701581001282, 104.43218803405762)"><path d="M6.53 0L-0.83 0L10.75-42.24L24.13-42.24L27.07-18.11L38.98-42.24L50.18-42.24L51.33-10.62L51.33-10.62Q51.58-4.35 54.66-2.43L54.66-2.43L54.66-2.43Q53.95-1.15 51.90 0.06L51.90 0.06L51.90 0.06Q49.86 1.28 47.14 1.28L47.14 1.28L47.14 1.28Q44.42 1.28 42.82 0.51L42.82 0.51L42.82 0.51Q41.22-0.26 40.32-1.54L40.32-1.54L40.32-1.54Q38.72-3.84 38.72-8.26L38.72-8.26L38.72-28.03L26.11 0L18.18 0L13.70-28.74L6.53 0ZM72.77-3.52L72.77-3.52L72.77-3.52Q70.78 1.28 64.45 1.28L64.45 1.28L64.45 1.28Q61.18 1.28 59.14-0.96L59.14-0.96L59.14-0.96Q57.41-2.94 57.41-4.93L57.41-4.93L57.41-4.93Q57.41-10.11 59.78-20.22L59.78-20.22L62.14-32.64L75.14-33.92L71.23-13.70L71.23-13.70Q70.14-8.96 70.14-7.30L70.14-7.30L70.14-7.30Q70.14-3.65 72.77-3.52ZM63.30-41.54L63.30-41.54L63.30-41.54Q63.30-44.03 65.38-45.38L65.38-45.38L65.38-45.38Q67.46-46.72 70.46-46.72L70.46-46.72L70.46-46.72Q73.47-46.72 75.30-45.38L75.30-45.38L75.30-45.38Q77.12-44.03 77.12-41.54L77.12-41.54L77.12-41.54Q77.12-39.04 75.10-37.76L75.10-37.76L75.10-37.76Q73.09-36.48 70.08-36.48L70.08-36.48L70.08-36.48Q67.07-36.48 65.18-37.76L65.18-37.76L65.18-37.76Q63.30-39.04 63.30-41.54ZM93.50-3.52L93.50-3.52L93.50-3.52Q91.52 1.28 85.18 1.28L85.18 1.28L85.18 1.28Q81.98 1.28 79.94-0.96L79.94-0.96L79.94-0.96Q78.27-2.82 78.27-4.93L78.27-4.93L78.27-4.93Q78.27-9.73 80.51-20.22L80.51-20.22L85.18-44.80L98.18-46.08L91.97-13.70L91.97-13.70Q90.88-8.96 90.88-7.30L90.88-7.30L90.88-7.30Q90.88-3.65 93.50-3.52ZM112.90 1.28L112.90 1.28L112.90 1.28Q98.82 1.28 98.82-11.97L98.82-11.97L98.82-11.97Q98.82-21.38 104.00-27.46L104.00-27.46L104.00-27.46Q109.50-33.92 119.04-33.92L119.04-33.92L119.04-33.92Q125.95-33.92 129.47-30.72L129.47-30.72L129.47-30.72Q132.99-27.52 132.99-20.80L132.99-20.80L132.99-20.80Q132.99-10.56 127.49-4.61L127.49-4.61L127.49-4.61Q122.11 1.28 112.90 1.28ZM114.56-26.56L114.56-26.56L114.56-26.56Q113.79-24.83 113.18-22.24L113.18-22.24L113.18-22.24Q112.58-19.65 111.81-15.55L111.81-15.55L111.81-15.55Q111.04-11.46 111.04-6.40L111.04-6.40L111.04-6.40Q111.04-4.74 111.58-3.65L111.58-3.65L111.58-3.65Q112.13-2.56 113.60-2.56L113.60-2.56L113.60-2.56Q115.07-2.56 116.00-3.26L116.00-3.26L116.00-3.26Q116.93-3.97 117.63-5.63L117.63-5.63L117.63-5.63Q118.91-8.58 119.94-14.05L119.94-14.05L119.94-14.05Q120.96-19.52 121.06-21.89L121.06-21.89L121.06-21.89Q121.15-24.26 121.15-26.02L121.15-26.02L121.15-26.02Q121.15-27.78 120.64-28.93L120.64-28.93L120.64-28.93Q120.13-30.08 118.69-30.08L118.69-30.08L118.69-30.08Q117.25-30.08 116.29-29.18L116.29-29.18L116.29-29.18Q115.33-28.29 114.56-26.56ZM155.90-22.46L155.90-22.46L155.90-22.46Q156.80-24.83 156.80-26.88L156.80-26.88L156.80-26.88Q156.80-30.66 153.73-30.66L153.73-30.66L153.73-30.66Q152.13-30.66 150.82-29.22L150.82-29.22L150.82-29.22Q149.50-27.78 149.50-25.98L149.50-25.98L149.50-25.98Q149.50-24.70 150.53-23.68L150.53-23.68L150.53-23.68Q152-22.27 155.78-19.97L155.78-19.97L155.78-19.97Q159.55-17.66 160.99-15.78L160.99-15.78L160.99-15.78Q162.43-13.89 162.43-11.30L162.43-11.30L162.43-11.30Q162.43-8.70 161.18-6.34L161.18-6.34L161.18-6.34Q159.94-3.97 157.70-2.30L157.70-2.30L157.70-2.30Q152.90 1.28 145.22 1.28L145.22 1.28L145.22 1.28Q141.06 1.28 137.86-0.90L137.86-0.90L137.86-0.90Q134.66-3.01 134.66-5.50L134.66-5.50L134.66-5.50Q134.66-8 136.48-9.47L136.48-9.47L136.48-9.47Q138.30-10.94 140.99-10.94L140.99-10.94L140.99-10.94Q143.68-10.94 145.34-9.92L145.34-9.92L145.34-9.92Q144.51-7.81 144.51-6.40L144.51-6.40L144.51-6.40Q144.51-2.18 148.10-2.18L148.10-2.18L148.10-2.18Q149.63-2.18 150.66-3.14L150.66-3.14L150.66-3.14Q151.68-4.10 151.68-5.76L151.68-5.76L151.68-5.76Q151.68-9.02 146.18-12.48L146.18-12.48L146.18-12.48Q141.70-15.42 140.67-16.58L140.67-16.58L140.67-16.58Q138.94-18.62 138.94-21.18L138.94-21.18L138.94-21.18Q138.94-23.74 140.16-26.18L140.16-26.18L140.16-26.18Q141.38-28.61 143.62-30.34L143.62-30.34L143.62-30.34Q148.29-33.92 156.42-33.92L156.42-33.92L156.42-33.92Q160.58-33.92 163.04-32.26L163.04-32.26L163.04-32.26Q165.50-30.59 165.50-27.78L165.50-27.78L165.50-27.78Q165.50-24.96 163.81-23.36L163.81-23.36L163.81-23.36Q162.11-21.76 159.04-21.76L159.04-21.76L159.04-21.76Q156.93-21.76 155.90-22.46ZM172.99 8.83L172.99 8.83L172.99 8.83Q176.26 8.45 178.30 4.22L178.30 4.22L178.30 4.22Q180.42-0.06 182.34-9.92L182.34-9.92L188.54-42.24L202.43-42.24L196.22-9.92L196.22-9.92Q193.86 2.62 189.95 7.55L189.95 7.55L189.95 7.55Q187.90 10.11 185.31 11.14L185.31 11.14L185.31 11.14Q182.72 12.16 179.90 12.16L179.90 12.16L179.90 12.16Q177.09 12.16 175.26 11.14L175.26 11.14L175.26 11.14Q173.44 10.11 172.99 8.83ZM217.79 1.28L217.79 1.28L217.79 1.28Q203.71 1.28 203.71-11.97L203.71-11.97L203.71-11.97Q203.71-21.38 208.90-27.46L208.90-27.46L208.90-27.46Q214.40-33.92 223.94-33.92L223.94-33.92L223.94-33.92Q230.85-33.92 234.37-30.72L234.37-30.72L234.37-30.72Q237.89-27.52 237.89-20.80L237.89-20.80L237.89-20.80Q237.89-10.56 232.38-4.61L232.38-4.61L232.38-4.61Q227.01 1.28 217.79 1.28ZM219.46-26.56L219.46-26.56L219.46-26.56Q218.69-24.83 218.08-22.24L218.08-22.24L218.08-22.24Q217.47-19.65 216.70-15.55L216.70-15.55L216.70-15.55Q215.94-11.46 215.94-6.40L215.94-6.40L215.94-6.40Q215.94-4.74 216.48-3.65L216.48-3.65L216.48-3.65Q217.02-2.56 218.50-2.56L218.50-2.56L218.50-2.56Q219.97-2.56 220.90-3.26L220.90-3.26L220.90-3.26Q221.82-3.97 222.53-5.63L222.53-5.63L222.53-5.63Q223.81-8.58 224.83-14.05L224.83-14.05L224.83-14.05Q225.86-19.52 225.95-21.89L225.95-21.89L225.95-21.89Q226.05-24.26 226.05-26.02L226.05-26.02L226.05-26.02Q226.05-27.78 225.54-28.93L225.54-28.93L225.54-28.93Q225.02-30.08 223.58-30.08L223.58-30.08L223.58-30.08Q222.14-30.08 221.18-29.18L221.18-29.18L221.18-29.18Q220.22-28.29 219.46-26.56ZM264.90-31.55L264.90-31.55L264.90-31.55Q267.01-33.92 270.66-33.92L270.66-33.92L270.66-33.92Q272.90-33.92 274.62-32.70L274.62-32.70L274.62-32.70Q276.35-31.49 276.35-29.22L276.35-29.22L276.35-29.22Q276.35-26.94 275.65-24.51L275.65-24.51L275.65-24.51Q274.94-22.08 273.86-19.58L273.86-19.58L273.86-19.58Q271.68-14.72 268.67-10.69L268.67-10.69L268.67-10.69Q264.45-4.86 260.38-1.79L260.38-1.79L260.38-1.79Q256.32 1.28 251.90 1.28L251.90 1.28L251.90 1.28Q248.32 1.28 246.14 0.45L246.14 0.45L246.14 0.45Q245.76-12.99 245.28-17.79L245.28-17.79L245.28-17.79Q244.80-22.59 244.42-25.22L244.42-25.22L244.42-25.22Q243.78-30.34 241.86-31.55L241.86-31.55L241.86-31.55Q243.33-32.83 244.77-33.38L244.77-33.38L244.77-33.38Q246.21-33.92 249.18-33.92L249.18-33.92L249.18-33.92Q252.16-33.92 254.27-31.58L254.27-31.58L254.27-31.58Q256.38-29.25 256.80-25.12L256.80-25.12L256.80-25.12Q257.22-20.99 257.22-16L257.22-16L257.22-16Q257.22-11.01 256.83-4.99L256.83-4.99L256.83-4.99Q258.82-6.40 260.93-10.69L260.93-10.69L260.93-10.69Q263.81-16.64 264.83-23.81L264.83-23.81L264.83-23.81Q265.15-25.98 265.15-28.29L265.15-28.29L265.15-28.29Q265.15-30.59 264.90-31.55ZM280.86-1.92L280.86-1.92L280.86-1.92Q279.36-3.58 278.69-6.21L278.69-6.21L278.69-6.21Q278.02-8.83 278.02-13.12L278.02-13.12L278.02-13.12Q278.02-17.41 279.49-21.31L279.49-21.31L279.49-21.31Q280.96-25.22 283.65-28.03L283.65-28.03L283.65-28.03Q289.15-33.92 298.24-33.92L298.24-33.92L298.24-33.92Q301.50-33.92 303.87-32.83L303.87-32.83L314.82-33.92L310.08-8.96L310.08-8.96Q309.89-8.19 309.89-6.78L309.89-6.78L309.89-6.78Q309.89-5.38 310.75-4.48L310.75-4.48L310.75-4.48Q311.62-3.58 312.90-3.46L312.90-3.46L312.90-3.46Q312.26-1.28 309.92 0L309.92 0L309.92 0Q307.58 1.28 304.96 1.28L304.96 1.28L304.96 1.28Q302.34 1.28 300.58 0.29L300.58 0.29L300.58 0.29Q298.82-0.70 298.30-2.37L298.30-2.37L298.30-2.37Q297.28-0.77 295.10 0.26L295.10 0.26L295.10 0.26Q292.93 1.28 290.02 1.28L290.02 1.28L290.02 1.28Q287.10 1.28 284.74 0.51L284.74 0.51L284.74 0.51Q282.37-0.26 280.86-1.92ZM294.37-27.90L294.37-27.90L294.37-27.90Q293.63-26.75 292.99-24.80L292.99-24.80L292.99-24.80Q292.35-22.85 291.30-17.63L291.30-17.63L291.30-17.63Q290.24-12.42 290.24-8.70L290.24-8.70L290.24-8.70Q290.24-4.99 290.82-3.90L290.82-3.90L290.82-3.90Q291.39-2.82 292.42-2.82L292.42-2.82L292.42-2.82Q294.46-2.82 295.97-4.77L295.97-4.77L295.97-4.77Q297.47-6.72 298.05-10.18L298.05-10.18L301.44-28.93L301.44-28.93Q300.10-30.08 298.53-30.08L298.53-30.08L298.53-30.08Q296.96-30.08 296.03-29.57L296.03-29.57L296.03-29.57Q295.10-29.06 294.37-27.90ZM345.34 1.28L345.34 1.28L345.34 1.28Q337.60 1.28 337.60-4.74L337.60-4.74L337.60-4.74Q337.66-6.40 338.18-9.22L338.18-9.22L339.33-15.10L339.33-15.10Q341.06-23.42 341.06-25.28L341.06-25.28L341.06-25.28Q341.06-28.99 338.88-28.99L338.88-28.99L338.88-28.99Q335.23-28.99 333.31-19.46L333.31-19.46L329.54 0L316.67 1.28L323.33-32.70L333.82-33.92L332.80-27.65L332.80-27.65Q335.81-33.92 345.02-33.92L345.02-33.92L345.02-33.92Q349.50-33.92 351.39-32.03L351.39-32.03L351.39-32.03Q353.28-30.14 353.28-25.92L353.28-25.92L353.28-25.92Q353.28-21.95 351.23-12.67L351.23-12.67L351.23-12.67Q350.27-8.51 350.27-6.94L350.27-6.94L350.27-6.94Q350.27-5.38 351.14-4.48L351.14-4.48L351.14-4.48Q352-3.58 353.28-3.46L353.28-3.46L353.28-3.46Q352.64-1.28 350.43 0L350.43 0L350.43 0Q348.22 1.28 345.34 1.28ZM372.35 1.28L372.35 1.28L372.35 1.28Q358.27 1.28 358.27-11.97L358.27-11.97L358.27-11.97Q358.27-21.38 363.46-27.46L363.46-27.46L363.46-27.46Q368.96-33.92 378.50-33.92L378.50-33.92L378.50-33.92Q385.41-33.92 388.93-30.72L388.93-30.72L388.93-30.72Q392.45-27.52 392.45-20.80L392.45-20.80L392.45-20.80Q392.45-10.56 386.94-4.61L386.94-4.61L386.94-4.61Q381.57 1.28 372.35 1.28ZM374.02-26.56L374.02-26.56L374.02-26.56Q373.25-24.83 372.64-22.24L372.64-22.24L372.64-22.24Q372.03-19.65 371.26-15.55L371.26-15.55L371.26-15.55Q370.50-11.46 370.50-6.40L370.50-6.40L370.50-6.40Q370.50-4.74 371.04-3.65L371.04-3.65L371.04-3.65Q371.58-2.56 373.06-2.56L373.06-2.56L373.06-2.56Q374.53-2.56 375.46-3.26L375.46-3.26L375.46-3.26Q376.38-3.97 377.09-5.63L377.09-5.63L377.09-5.63Q378.37-8.58 379.39-14.05L379.39-14.05L379.39-14.05Q380.42-19.52 380.51-21.89L380.51-21.89L380.51-21.89Q380.61-24.26 380.61-26.02L380.61-26.02L380.61-26.02Q380.61-27.78 380.10-28.93L380.10-28.93L380.10-28.93Q379.58-30.08 378.14-30.08L378.14-30.08L378.14-30.08Q376.70-30.08 375.74-29.18L375.74-29.18L375.74-29.18Q374.78-28.29 374.02-26.56ZM419.46-31.55L419.46-31.55L419.46-31.55Q421.57-33.92 425.22-33.92L425.22-33.92L425.22-33.92Q427.46-33.92 429.18-32.70L429.18-32.70L429.18-32.70Q430.91-31.49 430.91-29.22L430.91-29.22L430.91-29.22Q430.91-26.94 430.21-24.51L430.21-24.51L430.21-24.51Q429.50-22.08 428.42-19.58L428.42-19.58L428.42-19.58Q426.24-14.72 423.23-10.69L423.23-10.69L423.23-10.69Q419.01-4.86 414.94-1.79L414.94-1.79L414.94-1.79Q410.88 1.28 406.46 1.28L406.46 1.28L406.46 1.28Q402.88 1.28 400.70 0.45L400.70 0.45L400.70 0.45Q400.32-12.99 399.84-17.79L399.84-17.79L399.84-17.79Q399.36-22.59 398.98-25.22L398.98-25.22L398.98-25.22Q398.34-30.34 396.42-31.55L396.42-31.55L396.42-31.55Q397.89-32.83 399.33-33.38L399.33-33.38L399.33-33.38Q400.77-33.92 403.74-33.92L403.74-33.92L403.74-33.92Q406.72-33.92 408.83-31.58L408.83-31.58L408.83-31.58Q410.94-29.25 411.36-25.12L411.36-25.12L411.36-25.12Q411.78-20.99 411.78-16L411.78-16L411.78-16Q411.78-11.01 411.39-4.99L411.39-4.99L411.39-4.99Q413.38-6.40 415.49-10.69L415.49-10.69L415.49-10.69Q418.37-16.64 419.39-23.81L419.39-23.81L419.39-23.81Q419.71-25.98 419.71-28.29L419.71-28.29L419.71-28.29Q419.71-30.59 419.46-31.55ZM448.00-3.52L448.00-3.52L448.00-3.52Q446.02 1.28 439.68 1.28L439.68 1.28L439.68 1.28Q436.42 1.28 434.37-0.96L434.37-0.96L434.37-0.96Q432.64-2.94 432.64-4.93L432.64-4.93L432.64-4.93Q432.64-10.11 435.01-20.22L435.01-20.22L437.38-32.64L450.37-33.92L446.46-13.70L446.46-13.70Q445.38-8.96 445.38-7.30L445.38-7.30L445.38-7.30Q445.38-3.65 448.00-3.52ZM438.53-41.54L438.53-41.54L438.53-41.54Q438.53-44.03 440.61-45.38L440.61-45.38L440.61-45.38Q442.69-46.72 445.70-46.72L445.70-46.72L445.70-46.72Q448.70-46.72 450.53-45.38L450.53-45.38L450.53-45.38Q452.35-44.03 452.35-41.54L452.35-41.54L452.35-41.54Q452.35-39.04 450.34-37.76L450.34-37.76L450.34-37.76Q448.32-36.48 445.31-36.48L445.31-36.48L445.31-36.48Q442.30-36.48 440.42-37.76L440.42-37.76L440.42-37.76Q438.53-39.04 438.53-41.54ZM484.86-26.62L484.86-26.62L484.86-26.62Q484.86-23.94 482.62-22.27L482.62-22.27L482.62-22.27Q480.38-20.61 476.74-20.61L476.74-20.61L476.74-20.61Q475.20-20.61 474.30-21.06L474.30-21.06L474.30-21.06Q475.01-22.72 475.23-24.80L475.23-24.80L475.23-24.80Q475.46-26.88 475.46-27.46L475.46-27.46L475.46-27.46Q475.46-30.14 473.60-30.14L473.60-30.14L473.60-30.14Q472.32-30.14 470.88-28.54L470.88-28.54L470.88-28.54Q469.44-26.94 468.22-24.45L468.22-24.45L468.22-24.45Q465.54-18.69 465.54-12.86L465.54-12.86L465.54-12.86Q465.54-9.66 466.75-8.22L466.75-8.22L466.75-8.22Q467.97-6.78 470.66-6.78L470.66-6.78L470.66-6.78Q474.37-6.78 477.31-9.86L477.31-9.86L477.31-9.86Q478.14-10.82 478.59-11.90L478.59-11.90L478.59-11.90Q481.02-10.62 481.02-7.10L481.02-7.10L481.02-7.10Q481.02-3.52 477.06-1.15L477.06-1.15L477.06-1.15Q472.96 1.28 466.43 1.28L466.43 1.28L466.43 1.28Q453.44 1.28 453.44-12.48L453.44-12.48L453.44-12.48Q453.44-22.53 459.14-28.29L459.14-28.29L459.14-28.29Q464.64-33.92 474.75-33.92L474.75-33.92L474.75-33.92Q484.86-33.92 484.86-26.62Z" fill="#444"></path></g></g><style>text {
  font-size: 64px;
  font-family: Arial Black;
  dominant-baseline: central;
  text-anchor: middle;
}</style></svg>